<?xml version="1.0" encoding="UTF-8" standalone="no"?>
<!-- Created with Inkscape (http://www.inkscape.org/) -->

<svg
   xmlns:dc="http://purl.org/dc/elements/1.1/"
   xmlns:cc="http://creativecommons.org/ns#"
   xmlns:rdf="http://www.w3.org/1999/02/22-rdf-syntax-ns#"
   xmlns:svg="http://www.w3.org/2000/svg"
   xmlns="http://www.w3.org/2000/svg"
   xmlns:sodipodi="http://sodipodi.sourceforge.net/DTD/sodipodi-0.dtd"
   xmlns:inkscape="http://www.inkscape.org/namespaces/inkscape"
   width="210mm"
   height="297mm"
   viewBox="0 0 210 297"
   version="1.1"
   id="svg8"
   inkscape:version="0.92.5 (2060ec1f9f, 2020-04-08)"
   sodipodi:docname="moviedb.svg">
  <defs
     id="defs2" />
  <sodipodi:namedview
     id="base"
     pagecolor="#ffffff"
     bordercolor="#666666"
     borderopacity="1.0"
     inkscape:pageopacity="0.0"
     inkscape:pageshadow="2"
     inkscape:zoom="0.35"
     inkscape:cx="-1048.5714"
     inkscape:cy="560"
     inkscape:document-units="mm"
     inkscape:current-layer="layer1"
     showgrid="false"
     inkscape:snap-smooth-nodes="true"
     inkscape:snap-bbox="true"
     inkscape:snap-bbox-edge-midpoints="true"
     inkscape:bbox-nodes="true"
     inkscape:bbox-paths="true"
     inkscape:snap-bbox-midpoints="true"
     inkscape:snap-object-midpoints="true"
     inkscape:snap-others="true"
     inkscape:snap-global="true"
     inkscape:object-paths="true"
     inkscape:snap-intersection-paths="true"
     inkscape:snap-text-baseline="true"
     inkscape:snap-center="true"
     inkscape:snap-midpoints="true"
     inkscape:snap-page="true"
     inkscape:window-width="1916"
     inkscape:window-height="1019"
     inkscape:window-x="0"
     inkscape:window-y="31"
     inkscape:window-maximized="1" />
  <metadata
     id="metadata5">
    <rdf:RDF>
      <cc:Work
         rdf:about="">
        <dc:format>image/svg+xml</dc:format>
        <dc:type
           rdf:resource="http://purl.org/dc/dcmitype/StillImage" />
        <dc:title />
      </cc:Work>
    </rdf:RDF>
  </metadata>
  <g
     inkscape:label="Layer 1"
     inkscape:groupmode="layer"
     id="layer1">
    <path
       style="opacity:1;vector-effect:none;fill:#ff0000;fill-opacity:0.99672134;stroke:none;stroke-width:1.20678365;stroke-linecap:butt;stroke-linejoin:miter;stroke-miterlimit:4;stroke-dasharray:none;stroke-dashoffset:0;stroke-opacity:1"
       id="path815"
       sodipodi:type="arc"
       sodipodi:cx="105.94048"
       sodipodi:cy="141.16667"
       sodipodi:rx="83.261902"
       sodipodi:ry="83.261902"
       sodipodi:start="4.1689109"
       sodipodi:end="4.1669736"
       sodipodi:open="true"
       d="M 62.884417,69.901537 A 83.261902,83.261902 0 0 1 177.18476,98.076095 83.261902,83.261902 0 0 1 149.06556,212.39007 83.261902,83.261902 0 0 1 34.737983,184.32624 83.261902,83.261902 0 0 1 62.746436,69.985083" />
    <path
       d="m 96.30766,125.22271 a 18.627972,18.627972 0 0 1 25.57212,6.30342 18.627972,18.627972 0 0 1 -6.29103,25.57517 18.627972,18.627972 0 0 1 -25.57822,-6.27865 18.627972,18.627972 0 0 1 6.26626,-25.58125"
       sodipodi:open="true"
       sodipodi:end="4.1669736"
       sodipodi:start="4.1689109"
       sodipodi:ry="18.627972"
       sodipodi:rx="18.627972"
       sodipodi:cy="141.16667"
       sodipodi:cx="105.94048"
       sodipodi:type="arc"
       id="path819"
       style="opacity:1;vector-effect:none;fill:#ffffff;fill-opacity:0.99672134;stroke:none;stroke-width:0.26999062;stroke-linecap:butt;stroke-linejoin:miter;stroke-miterlimit:4;stroke-dasharray:none;stroke-dashoffset:0;stroke-opacity:1" />
    <path
       inkscape:transform-center-y="-49.892857"
       inkscape:transform-center-x="-6.8035714"
       style="opacity:1;vector-effect:none;fill:#ffffff;fill-opacity:0.99672134;stroke:none;stroke-width:0.30286056;stroke-linecap:butt;stroke-linejoin:miter;stroke-miterlimit:4;stroke-dasharray:none;stroke-dashoffset:0;stroke-opacity:1"
       id="path836"
       sodipodi:type="arc"
       sodipodi:cx="111.98811"
       sodipodi:cy="91.059532"
       sodipodi:rx="20.895828"
       sodipodi:ry="20.895828"
       sodipodi:start="4.1689109"
       sodipodi:end="4.1669736"
       sodipodi:open="true"
       d="m 101.18255,73.174473 a 20.895828,20.895828 0 0 1 28.68539,7.07083 20.895828,20.895828 0 0 1 -7.05694,28.688817 20.895828,20.895828 0 0 1 -28.692226,-7.04304 20.895828,20.895828 0 0 1 7.029146,-28.69564" />
    <path
       inkscape:transform-center-y="-49.892857"
       inkscape:transform-center-x="-6.8035714"
       style="opacity:1;vector-effect:none;fill:#ffffff;fill-opacity:0.99672134;stroke:none;stroke-width:0.30286056;stroke-linecap:butt;stroke-linejoin:miter;stroke-miterlimit:4;stroke-dasharray:none;stroke-dashoffset:0;stroke-opacity:1"
       id="path838"
       sodipodi:type="arc"
       sodipodi:cx="181.46419"
       sodipodi:cy="-70.509132"
       sodipodi:rx="20.895828"
       sodipodi:ry="20.895828"
       sodipodi:start="4.1689109"
       sodipodi:end="4.1669736"
       sodipodi:open="true"
       d="m 170.65862,-88.394191 a 20.895828,20.895828 0 0 1 28.68539,7.070829 20.895828,20.895828 0 0 1 -7.05693,28.688813 20.895828,20.895828 0 0 1 -28.69223,-7.04304 20.895828,20.895828 0 0 1 7.02914,-28.695635"
       transform="rotate(60)" />
    <path
       inkscape:transform-center-y="-49.892857"
       inkscape:transform-center-x="-6.8035714"
       style="opacity:1;vector-effect:none;fill:#ffffff;fill-opacity:0.99672134;stroke:none;stroke-width:0.30286056;stroke-linecap:butt;stroke-linejoin:miter;stroke-miterlimit:4;stroke-dasharray:none;stroke-dashoffset:0;stroke-opacity:1"
       id="path840"
       sodipodi:type="arc"
       sodipodi:cx="76.279655"
       sodipodi:cy="-211.46153"
       sodipodi:rx="20.895828"
       sodipodi:ry="20.895828"
       sodipodi:start="4.1689109"
       sodipodi:end="4.1669736"
       sodipodi:open="true"
       d="m 65.474087,-229.34659 a 20.895828,20.895828 0 0 1 28.685392,7.07083 20.895828,20.895828 0 0 1 -7.056936,28.68881 20.895828,20.895828 0 0 1 -28.692227,-7.04304 20.895828,20.895828 0 0 1 7.029143,-28.69563"
       transform="rotate(120)" />
    <path
       inkscape:transform-center-y="-49.892857"
       inkscape:transform-center-x="-6.8035714"
       style="opacity:1;vector-effect:none;fill:#ffffff;fill-opacity:0.99672134;stroke:none;stroke-width:0.30286056;stroke-linecap:butt;stroke-linejoin:miter;stroke-miterlimit:4;stroke-dasharray:none;stroke-dashoffset:0;stroke-opacity:1"
       id="path842"
       sodipodi:type="arc"
       sodipodi:cx="-98.380959"
       sodipodi:cy="-190.84525"
       sodipodi:rx="20.895828"
       sodipodi:ry="20.895828"
       sodipodi:start="4.1689109"
       sodipodi:end="4.1669736"
       sodipodi:open="true"
       d="m -109.18653,-208.7303 a 20.895828,20.895828 0 0 1 28.685395,7.07083 20.895828,20.895828 0 0 1 -7.056936,28.68881 20.895828,20.895828 0 0 1 -28.692229,-7.04304 20.895828,20.895828 0 0 1 7.02914,-28.69564"
       transform="scale(-1)" />
    <path
       inkscape:transform-center-y="-49.892857"
       inkscape:transform-center-x="-6.8035714"
       style="opacity:1;vector-effect:none;fill:#ffffff;fill-opacity:0.99672134;stroke:none;stroke-width:0.30286056;stroke-linecap:butt;stroke-linejoin:miter;stroke-miterlimit:4;stroke-dasharray:none;stroke-dashoffset:0;stroke-opacity:1"
       id="path844"
       sodipodi:type="arc"
       sodipodi:cx="-167.85706"
       sodipodi:cy="-29.276571"
       sodipodi:rx="20.895828"
       sodipodi:ry="20.895828"
       sodipodi:start="4.1689109"
       sodipodi:end="4.1669736"
       sodipodi:open="true"
       d="m -178.66262,-47.16163 a 20.895828,20.895828 0 0 1 28.68539,7.07083 20.895828,20.895828 0 0 1 -7.05694,28.688812 20.895828,20.895828 0 0 1 -28.69223,-7.04304 20.895828,20.895828 0 0 1 7.02915,-28.695635"
       transform="rotate(-120)" />
    <path
       inkscape:transform-center-y="-49.892857"
       inkscape:transform-center-x="-6.8035714"
       style="opacity:1;vector-effect:none;fill:#ffffff;fill-opacity:0.99672134;stroke:none;stroke-width:0.30286056;stroke-linecap:butt;stroke-linejoin:miter;stroke-miterlimit:4;stroke-dasharray:none;stroke-dashoffset:0;stroke-opacity:1"
       id="path846"
       sodipodi:type="arc"
       sodipodi:cx="-62.672508"
       sodipodi:cy="111.67583"
       sodipodi:rx="20.895828"
       sodipodi:ry="20.895828"
       sodipodi:start="4.1689109"
       sodipodi:end="4.1669736"
       sodipodi:open="true"
       d="m -73.478077,93.790768 a 20.895828,20.895828 0 0 1 28.685392,7.070832 20.895828,20.895828 0 0 1 -7.056936,28.68881 20.895828,20.895828 0 0 1 -28.692227,-7.04304 20.895828,20.895828 0 0 1 7.029143,-28.695635"
       transform="rotate(-60)" />
    <path
       d="m -73.478077,93.790768 a 20.895828,20.895828 0 0 1 28.685392,7.070832 20.895828,20.895828 0 0 1 -7.056936,28.68881 20.895828,20.895828 0 0 1 -28.692227,-7.04304 20.895828,20.895828 0 0 1 7.029143,-28.695635"
       sodipodi:open="true"
       sodipodi:end="4.1669736"
       sodipodi:start="4.1689109"
       sodipodi:ry="20.895828"
       sodipodi:rx="20.895828"
       sodipodi:cy="111.67583"
       sodipodi:cx="-62.672508"
       sodipodi:type="arc"
       id="path819-3"
       style="opacity:1;vector-effect:none;fill:#ffffff;fill-opacity:0.99672134;stroke:none;stroke-width:0.30286056;stroke-linecap:butt;stroke-linejoin:miter;stroke-miterlimit:4;stroke-dasharray:none;stroke-dashoffset:0;stroke-opacity:1"
       inkscape:transform-center-x="39.806686"
       inkscape:transform-center-y="-30.838497"
       transform="rotate(-60)" />
    <rect
       style="opacity:1;vector-effect:none;fill:#ff0000;fill-opacity:0.99672134;stroke:none;stroke-width:0.98663634;stroke-linecap:butt;stroke-linejoin:miter;stroke-miterlimit:4;stroke-dasharray:none;stroke-dashoffset:0;stroke-opacity:1"
       id="rect848"
       width="83.154762"
       height="12.6875"
       x="98.380959"
       y="211.74107"
       ry="6.34375" />
  </g>
</svg>
